<svg width="45" height="34" viewBox="0 0 45 34" fill="none" xmlns="http://www.w3.org/2000/svg">
<path d="M4.18866 0.127373C2.59971 0.558273 1.4967 1.62014 1.14189 3.05905C1.01847 3.57459 1.01847 4.88269 1.14189 5.40593C1.28844 6.01381 1.66639 6.71403 2.15233 7.29113C2.83882 8.11446 2.97766 8.21449 5.87788 10.092L6.55665 10.5229L5.98586 11.1616C3.4636 13.9393 2.538 17.0634 3.12421 20.7799C3.19363 21.1954 3.22449 21.5571 3.20135 21.5879C3.1165 21.6648 2.49943 21.2955 1.8438 20.7799C1.23445 20.3029 0.563386 19.5026 0.216286 18.8332L0.0311659 18.4869L0.00802587 19.141C-0.00740081 19.5026 0.000312531 19.872 0.0234525 19.9566C0.0465926 20.0489 0.385979 20.4567 0.771646 20.8569C1.51213 21.6494 2.20633 22.1342 3.07793 22.4881L3.58702 22.6959L3.95726 23.4885C5.53849 26.8895 8.74724 29.4826 12.1797 30.1444C14.1389 30.5291 16.1443 30.4137 18.3349 29.7904L18.5046 29.7442V31.8295V33.9148H22.4461H26.3799L26.3568 33.5069L26.3337 33.1068L22.9321 33.0837L19.5228 33.0683L19.4765 32.8298C19.3839 32.3527 19.4225 29.4903 19.5305 29.3595C19.5768 29.2979 19.8699 29.0979 20.163 28.9286C21.8368 27.9668 23.5106 26.297 24.5519 24.5272C25.1767 23.4731 25.4852 22.7036 25.8323 21.3109C25.8786 21.1339 25.948 20.9877 25.9943 20.9877C26.0328 20.9877 26.3105 21.1724 26.6036 21.3955C28.0923 22.5266 29.9358 23.2961 31.6944 23.5269C32.5815 23.6424 34.3941 23.6193 35.312 23.4808C37.1246 23.2114 38.9681 22.4035 40.4491 21.2262C41.0507 20.7491 42.1306 19.6334 42.6474 18.9486C44.3443 16.7094 45.0462 14.4318 44.9382 11.5232C44.8688 9.68418 44.5448 8.48381 43.6887 6.83714C43.1102 5.7445 42.4545 4.88269 41.4055 3.86699C39.1532 1.6817 36.6001 0.650612 33.4299 0.650612C31.9644 0.650612 31.0696 0.781422 29.7352 1.22002C26.2411 2.35883 23.2637 5.42901 22.2533 8.93779C22.1453 9.30714 22.0527 9.67649 22.0527 9.76113C22.0527 9.83807 22.0219 9.91502 21.991 9.9381C21.9602 9.96119 21.6208 9.75343 21.2351 9.48412C19.9162 8.53767 18.3041 7.85284 16.692 7.55275C15.5427 7.3373 13.4447 7.35269 12.2722 7.58353C10.7527 7.89132 9.35659 8.46842 8.09932 9.33022C7.75222 9.56106 7.42054 9.75343 7.35884 9.75343C7.25085 9.75343 5.21453 8.56075 4.54347 8.11446C2.56885 6.77559 1.75895 5.37515 1.99807 3.68232C2.16005 2.52812 2.77711 1.65092 3.77985 1.15846C5.63105 0.250488 8.21502 0.958401 9.534 2.74357C9.72683 2.99749 9.91967 3.21294 9.96595 3.21294C10.0122 3.21294 10.0199 3.09752 9.98909 2.92055C9.96595 2.76665 9.94281 2.47425 9.94281 2.2665C9.94281 1.94332 9.90424 1.85868 9.62656 1.55859C9.15605 1.05074 8.323 0.527496 7.55938 0.258183C6.96546 0.0504265 6.78805 0.0273399 5.81617 0.0042572C4.93685 -0.0111313 4.63603 0.0119514 4.18866 0.127373ZM35.0497 1.55859C37.3252 1.90485 39.2149 2.87438 40.881 4.54412C43.0947 6.77559 44.136 9.42256 44.0126 12.5235C43.8969 15.3936 42.8788 17.6944 40.8039 19.7334C39.2226 21.3032 37.2943 22.3035 35.2426 22.642C34.2938 22.7882 32.5275 22.7882 31.5556 22.6343C29.7507 22.3496 27.8763 21.4571 26.5496 20.2567L26.0637 19.8181V18.7331C26.0637 15.94 25.2075 13.6623 23.3254 11.4155C22.7392 10.7153 22.7547 10.823 23.1095 9.37639C23.8037 6.52936 26.0328 3.82082 28.7865 2.48195C30.6608 1.57397 32.9208 1.2431 35.0497 1.55859ZM16.422 8.33761C18.2269 8.6377 19.8467 9.39948 21.2891 10.6229L21.7982 11.0538L21.8445 12.3081C21.8676 13.0006 21.9448 13.8547 22.0142 14.2087C22.3921 16.1323 23.31 17.9944 24.629 19.518C25.1149 20.0797 25.1381 20.1643 24.9452 21.08C24.6521 22.4881 23.9657 24.0117 23.1018 25.1428C22.8318 25.5045 22.2456 26.1508 21.7982 26.5817C20.9806 27.3743 19.7387 28.2669 19.5536 28.1976C19.4765 28.1668 19.4534 26.6356 19.4611 19.9874C19.4688 15.4937 19.4456 11.7848 19.4225 11.7387C19.3994 11.7002 19.1911 11.6771 18.9597 11.6925L18.5432 11.7156L18.5046 20.2567L18.466 28.7901L18.0804 28.9363C15.9206 29.7442 12.897 29.6981 10.691 28.8363C8.377 27.936 6.10928 25.8661 4.98313 23.6424C4.62832 22.9344 4.58204 22.9652 5.81617 22.9421C6.68006 22.9267 7.0503 22.8883 7.66737 22.7267C9.98909 22.1342 11.6475 20.5722 12.1797 18.4792C12.4034 17.6251 12.3956 15.8707 12.1797 15.032C11.7477 13.4007 10.799 12.2003 8.80895 10.7614C8.50041 10.5383 8.24587 10.3228 8.24587 10.2844C8.24587 10.1766 9.34888 9.47642 9.9968 9.16863C11.069 8.66079 12.4728 8.29914 13.7995 8.18371C14.3703 8.13755 15.643 8.21449 16.422 8.33761ZM8.28444 11.6309C9.68055 12.562 10.3593 13.2622 10.9533 14.4087C11.3775 15.2321 11.5163 15.9477 11.4623 17.1326C11.4083 18.5869 11.0767 19.4257 10.2051 20.3721C9.49543 21.1339 8.4927 21.7187 7.38969 21.9957C7.12744 22.0649 6.56436 22.1034 5.85474 22.1034C4.58975 22.0957 4.3275 22.0265 4.21951 21.6417C3.88784 20.4491 3.8107 18.2792 4.0421 16.948C4.28893 15.5091 4.81344 14.2317 5.66962 12.9313C6.10928 12.2696 7.19686 11.0615 7.35112 11.0615C7.3974 11.0615 7.82164 11.3155 8.28444 11.6309ZM23.2715 12.7621C24.0814 13.8624 24.7678 15.5091 25.0147 16.948C25.1458 17.6944 25.1767 18.6793 25.0764 18.6793C24.9684 18.6793 24.3822 17.8482 24.0196 17.1788C23.3177 15.8938 22.9012 14.4857 22.7855 12.9621C22.7161 12.1311 22.7932 12.1003 23.2715 12.7621Z" fill="#FCFCFE"/>
<path d="M43.7196 23.7347C43.7119 23.9809 43.7196 24.9043 43.7273 25.7969C43.7427 27.6513 43.7736 27.759 44.3443 28.0514C44.7763 28.2669 45 28.2515 45 27.9975C45 27.8513 44.946 27.7975 44.7763 27.7513C44.6529 27.7128 44.4755 27.6128 44.3752 27.5205L44.1901 27.3512V25.3198V23.2961H43.9587C43.7273 23.2961 43.7273 23.3038 43.7196 23.7347Z" fill="#FCFCFE"/>
<path d="M42.6551 24.281C42.5548 24.4657 42.6859 24.6811 42.9096 24.6811C43.1642 24.6811 43.2953 24.5042 43.1873 24.3041C43.087 24.104 42.7553 24.0886 42.6551 24.281Z" fill="#FCFCFE"/>
<path d="M36.5924 25.189C36.4381 25.2813 36.361 25.289 36.3378 25.2275C36.3224 25.1813 36.2067 25.1428 36.0833 25.1428H35.8596V26.651V28.1514L36.0756 28.1284L36.2838 28.1053L36.3224 27.0434L36.361 25.9738L36.6155 25.7507C36.816 25.5737 36.9395 25.5275 37.2171 25.5275C37.9499 25.5275 38.0965 25.7815 38.0965 27.0434C38.0965 27.5436 38.1273 27.9975 38.1659 28.0514C38.1967 28.113 38.3124 28.1437 38.4127 28.1284L38.5978 28.1053L38.5901 27.0588C38.5747 25.8815 38.513 25.6737 38.0502 25.3198C37.6954 25.0582 36.9626 24.9889 36.5924 25.189Z" fill="#FCFCFE"/>
<path d="M39.7857 25.2428C39.6006 25.3429 39.3461 25.5737 39.215 25.7507C39.0067 26.0431 38.9836 26.1431 38.9836 26.6356C38.9836 27.1204 39.0144 27.2358 39.1918 27.4974C39.5543 28.0129 39.886 28.1822 40.5185 28.1822C40.9273 28.1822 41.1279 28.1437 41.3207 28.0283C41.5598 27.8821 41.5829 27.8821 41.6524 28.0052C41.6986 28.0822 41.8143 28.1437 41.9146 28.1437H42.1075V26.6433V25.1428H41.8761C41.7218 25.1428 41.6447 25.1813 41.6447 25.2582C41.6447 25.4044 41.6524 25.4044 41.2513 25.2198C40.7808 25.012 40.21 25.0197 39.7857 25.2428ZM41.1047 25.643C41.4364 25.8123 41.6447 26.2124 41.6447 26.6818C41.6447 27.0588 41.6215 27.1127 41.3053 27.4204C41.0044 27.7282 40.935 27.759 40.5956 27.759C39.4464 27.759 38.9913 26.4663 39.8706 25.7276C40.0634 25.5737 40.1945 25.5276 40.4954 25.5276C40.7113 25.5276 40.9813 25.5814 41.1047 25.643Z" fill="#FCFCFE"/>
<path d="M42.6782 25.2428C42.6628 25.2967 42.6551 25.9661 42.6628 26.7202L42.686 28.1053L42.8942 28.1284L43.1025 28.1514L43.1256 26.7433C43.141 25.9661 43.1333 25.289 43.1179 25.2352C43.087 25.112 42.7322 25.112 42.6782 25.2428Z" fill="#FCFCFE"/>
<path d="M39.8705 29.4672C39.8628 30.1674 39.8088 31.0754 39.7779 31.1139C39.7548 31.1293 39.5851 31.0754 39.4 30.9908C38.5438 30.606 37.5719 30.9908 37.2171 31.8526C36.6849 33.1222 38.1427 34.4611 39.3691 33.8378C39.7317 33.6531 39.8705 33.6454 39.8705 33.807C39.8705 33.8917 39.9322 33.9148 40.0865 33.8994L40.2947 33.8763V31.4909V29.1056L40.0865 29.0825C39.8782 29.0594 39.8705 29.0671 39.8705 29.4672ZM39.3151 31.4525C39.5774 31.614 39.8705 32.1219 39.8705 32.4143C39.8705 32.4989 39.8011 32.7067 39.7239 32.8837C39.3383 33.7301 38.1119 33.7532 37.6953 32.9145C37.1863 31.9141 38.351 30.8677 39.3151 31.4525Z" fill="#FCFCFE"/>
<path d="M32.5737 29.9443C32.5506 30.052 32.5429 30.8061 32.5583 31.6217C32.5892 33.3454 32.6432 33.5146 33.2371 33.8224C33.669 34.0379 33.8927 34.0225 33.8927 33.7686C33.8927 33.6224 33.8387 33.5685 33.669 33.5223C33.5456 33.4839 33.3682 33.3838 33.2679 33.2915C33.0905 33.1299 33.0828 33.0607 33.0828 32.245C33.0828 31.6064 33.106 31.3755 33.1831 31.3601C33.2294 31.3601 33.4145 31.3447 33.5842 31.3447C33.8619 31.337 33.8927 31.314 33.8927 31.1447C33.8927 30.9677 33.8619 30.9523 33.4916 30.9292L33.0828 30.9061V30.4522C33.0828 29.8827 33.0365 29.7596 32.8051 29.7596C32.674 29.7596 32.6123 29.8135 32.5737 29.9443Z" fill="#FCFCFE"/>
<path d="M40.827 30.0212C40.7344 30.2598 40.8347 30.4137 41.0815 30.4368C41.2744 30.4522 41.3361 30.4291 41.3746 30.2983C41.4055 30.2059 41.3824 30.0905 41.3361 30.0289C41.2127 29.8827 40.881 29.8827 40.827 30.0212Z" fill="#FCFCFE"/>
<path d="M30.8845 30.9292C30.3214 31.237 30.4526 31.9449 31.1468 32.2912C31.5324 32.4912 31.8487 32.8221 31.8487 33.0376C31.8487 33.4916 31.1159 33.707 30.7842 33.3531C30.6917 33.253 30.576 33.0683 30.5297 32.9298C30.4063 32.5759 30.2829 32.7144 30.3214 33.1607C30.3754 33.6762 30.6222 33.9225 31.1313 33.9686C31.7947 34.0379 32.3115 33.607 32.3115 32.9914C32.3115 32.6144 32.1032 32.345 31.5324 31.968C30.9848 31.614 30.8768 31.3524 31.2393 31.314C31.3859 31.2986 31.4939 31.3524 31.6404 31.5217C31.8564 31.7833 31.9258 31.7602 31.9258 31.4371C31.9258 30.9754 31.3319 30.683 30.8845 30.9292Z" fill="#FCFCFE"/>
<path d="M42.6859 30.9677C41.3977 31.6371 41.4286 33.33 42.7399 33.8686C43.3646 34.1302 44.1205 33.9455 44.5602 33.4146C45.4164 32.3758 44.6682 30.8369 43.3029 30.8446C43.0947 30.8446 42.817 30.8984 42.6859 30.9677ZM43.9277 31.4448C44.2517 31.6448 44.5293 32.2142 44.4599 32.5451C44.3211 33.1915 43.9354 33.53 43.3338 33.53C42.7167 33.53 42.1845 33.0145 42.1845 32.4143C42.1845 31.5756 43.2104 31.0062 43.9277 31.4448Z" fill="#FCFCFE"/>
<path d="M34.0856 31.968C34.0856 32.9452 34.1011 33.0376 34.2785 33.3454C34.6101 33.9071 35.4046 34.1533 36.0525 33.884C36.2145 33.8147 36.3379 33.7993 36.3611 33.8455C36.3919 33.884 36.5076 33.9148 36.6387 33.9148H36.8624V32.4143V30.9138H36.631H36.3996V31.7987C36.3996 32.7836 36.3148 33.0991 35.9754 33.3607C35.7209 33.5608 35.2041 33.5839 34.9495 33.4069C34.6179 33.1761 34.5484 32.9145 34.5484 31.8757V30.9138H34.317H34.0856V31.968Z" fill="#FCFCFE"/>
<path d="M40.8733 32.4143V33.9148H41.1047H41.3361V32.4143V30.9138H41.1047H40.8733V32.4143Z" fill="#FCFCFE"/>
</svg>
